<svg xmlns="http://www.w3.org/2000/svg" width="680" viewBox="0 0 680 360" font-family="-apple-system,BlinkMacSystemFont,'Segoe UI',Roboto,'PingFang SC','Microsoft YaHei',sans-serif">
<defs>
<marker id="arrow" viewBox="0 0 10 10" refX="8" refY="5" markerWidth="6" markerHeight="6" orient="auto-start-reverse"><path d="M2 1L8 5L2 9" fill="none" stroke="context-stroke" stroke-width="1.5" stroke-linecap="round" stroke-linejoin="round"/></marker>
</defs>

<rect x="20" y="60" width="120" height="56" rx="8" fill="#EEEDFE" stroke="#534AB7" stroke-width="0.5"/>
<text x="80" y="80" text-anchor="middle" font-size="14" font-weight="500" fill="#3C3489">位置环 PID</text>
<text x="80" y="98" text-anchor="middle" font-size="12" fill="#534AB7">PD 直控扭矩</text>

<rect x="180" y="60" width="120" height="56" rx="8" fill="#EEEDFE" stroke="#534AB7" stroke-width="0.5"/>
<text x="240" y="80" text-anchor="middle" font-size="14" font-weight="500" fill="#3C3489">电流环 PI</text>
<text x="240" y="98" text-anchor="middle" font-size="12" fill="#534AB7">id=0, iq=指令</text>

<rect x="340" y="60" width="120" height="56" rx="8" fill="#E1F5EE" stroke="#0F6E56" stroke-width="0.5"/>
<text x="400" y="80" text-anchor="middle" font-size="14" font-weight="500" fill="#085041">逆 Park 变换</text>
<text x="400" y="98" text-anchor="middle" font-size="12" fill="#0F6E56">dq → αβ</text>

<rect x="500" y="60" width="120" height="56" rx="8" fill="#E1F5EE" stroke="#0F6E56" stroke-width="0.5"/>
<text x="560" y="80" text-anchor="middle" font-size="14" font-weight="500" fill="#085041">SVPWM</text>
<text x="560" y="98" text-anchor="middle" font-size="12" fill="#0F6E56">共模注入调制</text>

<line x1="140" y1="88" x2="178" y2="88" stroke="#5F5E5A" stroke-width="1.5" marker-end="url(#arrow)"/>
<text x="159" y="80" text-anchor="middle" font-size="12" fill="#5F5E5A">iq_ref</text>
<line x1="300" y1="88" x2="338" y2="88" stroke="#5F5E5A" stroke-width="1.5" marker-end="url(#arrow)"/>
<text x="319" y="80" text-anchor="middle" font-size="12" fill="#5F5E5A">Uq</text>
<line x1="460" y1="88" x2="498" y2="88" stroke="#5F5E5A" stroke-width="1.5" marker-end="url(#arrow)"/>
<text x="479" y="80" text-anchor="middle" font-size="12" fill="#5F5E5A">Uα,Uβ</text>

<rect x="500" y="170" width="120" height="50" rx="8" fill="#F1EFE8" stroke="#5F5E5A" stroke-width="0.5"/>
<text x="560" y="199" text-anchor="middle" font-size="14" font-weight="500" fill="#2C2C2A">L6234 三相桥</text>
<line x1="560" y1="116" x2="560" y2="168" stroke="#5F5E5A" stroke-width="1.5" marker-end="url(#arrow)"/>
<text x="585" y="147" text-anchor="middle" font-size="12" fill="#5F5E5A">Ta,Tb,Tc</text>

<rect x="500" y="270" width="120" height="50" rx="8" fill="#FAECE7" stroke="#993C1D" stroke-width="0.5"/>
<text x="560" y="288" text-anchor="middle" font-size="14" font-weight="500" fill="#712B13">三相电机</text>
<text x="560" y="306" text-anchor="middle" font-size="12" fill="#993C1D">5010 360KV</text>
<line x1="560" y1="220" x2="560" y2="268" stroke="#5F5E5A" stroke-width="1.5" marker-end="url(#arrow)"/>

<rect x="180" y="270" width="160" height="50" rx="8" fill="#E1F5EE" stroke="#0F6E56" stroke-width="0.5"/>
<text x="260" y="288" text-anchor="middle" font-size="14" font-weight="500" fill="#085041">Clark / Park 正变换</text>
<text x="260" y="306" text-anchor="middle" font-size="12" fill="#0F6E56">ia,ib → id,iq</text>

<rect x="380" y="270" width="100" height="50" rx="8" fill="#FAEEDA" stroke="#BA7517" stroke-width="0.5"/>
<text x="430" y="288" text-anchor="middle" font-size="14" font-weight="500" fill="#633806">编码器</text>
<text x="430" y="306" text-anchor="middle" font-size="12" fill="#854F0B">θe (SPI+DMA)</text>

<line x1="500" y1="295" x2="482" y2="295" stroke="#993C1D" stroke-width="1.5" marker-end="url(#arrow)"/>
<line x1="500" y1="300" x2="342" y2="300" stroke="#993C1D" stroke-width="0.5" stroke-dasharray="4 4"/>
<line x1="500" y1="300" x2="500" y2="295" stroke="#993C1D" stroke-width="0.5" stroke-dasharray="4 4"/>
<line x1="380" y1="290" x2="342" y2="290" stroke="#0F6E56" stroke-width="1.5" marker-end="url(#arrow)"/>
<text x="361" y="283" text-anchor="middle" font-size="12" fill="#0F6E56">ia,ib</text>

<line x1="260" y1="270" x2="260" y2="120" stroke="#185FA5" stroke-width="0.5" stroke-dasharray="4 4"/>
<line x1="260" y1="120" x2="240" y2="120" stroke="#185FA5" stroke-width="0.5" stroke-dasharray="4 4"/>
<line x1="240" y1="122" x2="240" y2="116" stroke="#185FA5" stroke-width="1.5" marker-end="url(#arrow)"/>
<text x="285" y="195" text-anchor="middle" font-size="12" fill="#185FA5">id,iq 反馈</text>

<line x1="430" y1="270" x2="430" y2="135" stroke="#BA7517" stroke-width="0.5" stroke-dasharray="4 4"/>
<line x1="430" y1="135" x2="402" y2="135" stroke="#BA7517" stroke-width="0.5" stroke-dasharray="4 4"/>
<line x1="402" y1="135" x2="402" y2="118" stroke="#BA7517" stroke-width="1.5" marker-end="url(#arrow)"/>
<text x="448" y="205" text-anchor="middle" font-size="12" fill="#854F0B">θe</text>

<rect x="20" y="270" width="120" height="50" rx="8" fill="#F1EFE8" stroke="#5F5E5A" stroke-width="0.5"/>
<text x="80" y="288" text-anchor="middle" font-size="14" font-weight="500" fill="#2C2C2A">θ_multi 反馈</text>
<text x="80" y="306" text-anchor="middle" font-size="12" fill="#5F5E5A">多圈累加</text>
<line x1="180" y1="295" x2="142" y2="295" stroke="#5F5E5A" stroke-width="1.5" marker-end="url(#arrow)"/>
<line x1="80" y1="270" x2="80" y2="122" stroke="#534AB7" stroke-width="0.5" stroke-dasharray="4 4"/>
<line x1="80" y1="122" x2="80" y2="116" stroke="#534AB7" stroke-width="1.5" marker-end="url(#arrow)"/>

<text x="330" y="348" text-anchor="middle" font-size="12" fill="#5F5E5A">所有控制运算在 TIM3 25kHz 中断内完成</text>
</svg>
