<svg xmlns="http://www.w3.org/2000/svg" width="680" viewBox="0 0 680 400" font-family="-apple-system,BlinkMacSystemFont,'Segoe UI',Roboto,'PingFang SC','Microsoft YaHei',sans-serif">
<defs>
<marker id="arrow" viewBox="0 0 10 10" refX="8" refY="5" markerWidth="6" markerHeight="6" orient="auto-start-reverse"><path d="M2 1L8 5L2 9" fill="none" stroke="context-stroke" stroke-width="1.5" stroke-linecap="round" stroke-linejoin="round"/></marker>
</defs>

<rect x="40" y="50" width="270" height="180" rx="14" fill="#E6F1FB" stroke="#185FA5" stroke-width="0.5"/>
<text x="175" y="78" text-anchor="middle" font-size="14" font-weight="500" fill="#0C447C">主板 Master (F446RE)</text>

<rect x="64" y="92" width="222" height="44" rx="8" fill="#E1F5EE" stroke="#0F6E56" stroke-width="0.5"/>
<text x="175" y="110" text-anchor="middle" font-size="14" font-weight="500" fill="#085041">AS5047P 读编码器</text>
<text x="175" y="126" text-anchor="middle" font-size="12" fill="#0F6E56">手拧转子作为手轮输入</text>

<rect x="64" y="160" width="222" height="44" rx="8" fill="#E1F5EE" stroke="#0F6E56" stroke-width="0.5"/>
<text x="175" y="178" text-anchor="middle" font-size="14" font-weight="500" fill="#085041">单圈 → 多圈累加</text>
<text x="175" y="194" text-anchor="middle" font-size="12" fill="#0F6E56">CAN 周期 1ms 发送目标角</text>
<line x1="175" y1="136" x2="175" y2="156" stroke="#5F5E5A" stroke-width="1.5" marker-end="url(#arrow)"/>

<rect x="370" y="50" width="270" height="180" rx="14" fill="#E6F1FB" stroke="#185FA5" stroke-width="0.5"/>
<text x="505" y="78" text-anchor="middle" font-size="14" font-weight="500" fill="#0C447C">从板 Slave (F446RE)</text>

<rect x="394" y="92" width="222" height="44" rx="8" fill="#FAEEDA" stroke="#BA7517" stroke-width="0.5"/>
<text x="505" y="110" text-anchor="middle" font-size="14" font-weight="500" fill="#633806">CAN RX 中断 → union 解包</text>
<text x="505" y="126" text-anchor="middle" font-size="12" fill="#854F0B">收到目标角 theta_target</text>

<rect x="394" y="160" width="222" height="44" rx="8" fill="#FAEEDA" stroke="#BA7517" stroke-width="0.5"/>
<text x="505" y="178" text-anchor="middle" font-size="14" font-weight="500" fill="#633806">三环位置环 → FOC → 电机</text>
<text x="505" y="194" text-anchor="middle" font-size="12" fill="#854F0B">跟随,支持多圈顺逆双向</text>
<line x1="505" y1="136" x2="505" y2="156" stroke="#5F5E5A" stroke-width="1.5" marker-end="url(#arrow)"/>

<line x1="310" y1="182" x2="392" y2="182" stroke="#185FA5" stroke-width="2" marker-end="url(#arrow)"/>
<text x="351" y="172" text-anchor="middle" font-size="12" fill="#185FA5">CAN 0x101</text>

<rect x="200" y="300" width="280" height="56" rx="8" fill="#F1EFE8" stroke="#5F5E5A" stroke-width="0.5"/>
<text x="340" y="320" text-anchor="middle" font-size="14" font-weight="500" fill="#2C2C2A">CAN 总线 500 kbps</text>
<text x="340" y="340" text-anchor="middle" font-size="12" fill="#5F5E5A">共地 + 双绞线 + 两端 120Ω 终端电阻</text>
<line x1="175" y1="230" x2="175" y2="328" stroke="#888780" stroke-width="0.5" stroke-dasharray="4 4"/>
<line x1="175" y1="328" x2="198" y2="328" stroke="#888780" stroke-width="0.5" stroke-dasharray="4 4"/>
<line x1="505" y1="230" x2="505" y2="328" stroke="#888780" stroke-width="0.5" stroke-dasharray="4 4"/>
<line x1="505" y1="328" x2="482" y2="328" stroke="#888780" stroke-width="0.5" stroke-dasharray="4 4"/>
</svg>
